<?xml version="1.0" standalone="no"?>
<!DOCTYPE svg PUBLIC "-//W3C//DTD SVG 20010904//EN"
 "http://www.w3.org/TR/2001/REC-SVG-20010904/DTD/svg10.dtd">
<svg version="1.0" xmlns="http://www.w3.org/2000/svg"
 width="522.000000pt" height="207.000000pt" viewBox="0 0 522.000000 207.000000"
 preserveAspectRatio="xMidYMid meet">
<metadata>
Created by potrace 1.16, written by Peter Selinger 2001-2019
</metadata>
<g transform="translate(0.000000,207.000000) scale(0.100000,-0.100000)"
fill="#000000" stroke="none">
<path d="M90 1020 l0 -910 910 0 910 0 0 910 0 910 -910 0 -910 0 0 -910z
m885 485 c0 -94 -1 -101 -22 -110 -14 -6 -21 -16 -18 -25 2 -8 18 -71 35 -140
17 -69 33 -131 35 -138 4 -9 18 -3 47 21 54 43 68 51 68 38 0 -6 -22 -27 -50
-48 -27 -20 -50 -41 -50 -46 0 -5 15 2 33 15 46 35 57 40 57 29 0 -6 -20 -25
-45 -43 -53 -39 -60 -59 -9 -28 48 31 53 19 7 -19 -38 -31 -39 -40 -2 -21 25
14 24 2 -3 -28 -18 -20 -19 -24 -5 -19 19 7 23 -3 6 -20 -7 -7 -8 -17 -2 -26
5 -11 28 61 71 226 34 133 62 248 62 255 0 6 -7 12 -15 12 -24 0 -35 35 -35
112 0 111 -4 109 180 106 l155 -3 3 -101 3 -101 -30 -13 c-36 -15 -26 17 -147
-445 -53 -203 -101 -376 -106 -382 -7 -9 -48 -13 -139 -13 -125 0 -130 1 -139
22 -5 13 -55 199 -110 413 -56 215 -104 391 -108 393 -55 21 -57 25 -60 107
-5 136 -18 126 171 123 l162 -3 0 -100z"/>
<path d="M2197 1624 c-14 -14 -7 -77 10 -89 11 -9 34 -75 64 -191 l46 -179 61
-3 c34 -2 62 0 62 3 0 29 97 362 107 368 8 5 13 26 13 52 l0 45 -70 0 -70 0 0
-44 c0 -26 5 -46 12 -48 9 -3 4 -34 -16 -114 -16 -60 -31 -112 -35 -116 -4 -5
-20 44 -36 107 -24 93 -27 117 -17 124 8 5 12 23 10 47 l-3 39 -65 3 c-36 2
-69 0 -73 -4z"/>
<path d="M2797 1624 c-13 -13 -7 -71 8 -84 23 -19 22 -285 -1 -294 -11 -4 -14
-17 -12 -43 l3 -38 73 -3 72 -3 0 41 c0 27 -5 43 -15 46 -23 9 -22 279 1 292
11 6 14 20 12 48 l-3 39 -65 3 c-36 2 -69 0 -73 -4z"/>
<path d="M3253 1621 c-18 -5 -39 -14 -47 -21 -45 -36 -47 -173 -4 -216 20 -20
38 -26 97 -31 57 -5 74 -10 82 -25 19 -35 3 -66 -36 -74 -57 -10 -83 1 -87 39
-3 30 -6 32 -45 35 l-43 3 0 -46 c0 -56 23 -103 56 -115 40 -16 161 -12 195 5
38 20 49 50 49 134 0 104 -21 124 -145 137 -59 6 -68 12 -63 50 3 28 5 29 58
29 53 0 55 -1 58 -27 3 -25 7 -28 42 -28 47 0 52 7 44 61 -11 68 -38 90 -114
95 -36 2 -80 -1 -97 -5z"/>
<path d="M3707 1624 c-13 -13 -7 -71 8 -84 23 -19 22 -285 -1 -294 -11 -4 -14
-17 -12 -43 l3 -38 73 -3 72 -3 0 41 c0 27 -5 43 -15 46 -23 9 -22 279 1 292
11 6 14 20 12 48 l-3 39 -65 3 c-36 2 -69 0 -73 -4z"/>
<path d="M4160 1617 c-69 -19 -80 -49 -80 -220 0 -165 10 -200 67 -224 27 -11
58 -14 111 -11 120 8 142 46 141 238 -1 121 -14 175 -49 201 -32 24 -131 32
-190 16z m138 -99 c8 -8 12 -49 12 -117 0 -98 -8 -135 -27 -136 -4 -1 -20 -4
-35 -8 -15 -4 -38 -3 -52 3 -26 9 -26 10 -26 128 0 78 4 122 12 130 7 7 33 12
58 12 25 0 51 -5 58 -12z"/>
<path d="M4630 1586 c0 -30 5 -46 15 -50 12 -4 15 -30 15 -141 0 -111 -3 -137
-15 -141 -10 -4 -15 -20 -15 -50 l0 -44 70 0 70 0 0 44 c0 26 -5 46 -12 48 -8
3 -13 39 -14 112 -1 59 1 104 5 101 3 -4 33 -72 66 -153 l61 -147 67 -3 67 -3
0 185 c0 158 2 186 16 194 11 6 14 20 12 48 l-3 39 -70 0 -70 0 -3 -38 c-2
-27 2 -42 13 -51 13 -9 15 -29 13 -116 -3 -104 -3 -105 -17 -65 -13 37 -31 79
-80 190 -10 22 -22 50 -25 63 -7 20 -13 22 -87 22 l-79 0 0 -44z"/>
<path d="M2200 946 c0 -31 5 -48 18 -57 13 -10 32 -65 61 -179 23 -91 47 -182
52 -203 l10 -38 66 3 66 3 54 205 c32 124 59 208 68 213 10 5 15 24 15 52 l0
45 -80 0 -80 0 0 -45 c0 -27 5 -47 14 -52 11 -7 8 -29 -18 -130 -17 -67 -34
-124 -37 -127 -4 -4 -21 49 -39 116 -25 95 -30 126 -21 140 6 10 11 36 11 58
l0 40 -80 0 -80 0 0 -44z"/>
<path d="M2870 945 c0 -31 5 -47 15 -51 12 -5 15 -32 15 -159 0 -137 -2 -153
-18 -157 -14 -4 -16 -14 -14 -56 l4 -52 164 0 164 0 0 75 0 75 -39 0 c-30 0
-40 -4 -44 -20 -4 -17 -14 -20 -61 -20 l-56 0 0 49 0 50 53 3 52 3 3 53 c3 57
5 56 -65 53 l-42 -2 1 51 0 50 53 0 c45 0 55 -3 60 -20 5 -16 15 -20 46 -20
l39 0 0 70 0 70 -165 0 -165 0 0 -45z"/>
<path d="M3457 983 c-14 -13 -7 -84 8 -89 23 -9 22 -306 0 -324 -11 -9 -15
-27 -13 -54 l3 -41 74 -3 c53 -2 77 1 82 10 12 18 11 76 -1 83 -6 4 -8 11 -5
16 3 5 0 6 -8 3 -10 -3 -14 3 -13 23 2 27 5 28 55 31 70 4 81 -7 81 -78 0 -87
3 -90 71 -90 l59 0 0 50 c0 36 -4 52 -15 56 -9 4 -15 19 -15 38 0 17 -7 42
-16 54 -14 21 -14 25 3 50 22 34 25 160 4 210 -22 53 -52 62 -209 62 -76 0
-142 -3 -145 -7z m257 -109 c18 -17 21 -76 6 -103 -7 -14 -23 -18 -75 -20
l-66 -2 2 63 c2 35 4 66 6 71 8 14 111 8 127 -9z"/>
<path d="M4172 980 c-30 -13 -62 -84 -62 -140 0 -62 30 -124 66 -137 16 -6 61
-15 99 -20 l70 -8 0 -45 0 -45 -65 0 -65 0 -5 38 c-3 21 -8 38 -12 37 -5 0
-26 0 -48 0 l-40 0 0 -46 c0 -57 23 -107 57 -125 34 -18 198 -18 231 0 34 18
52 70 52 146 0 119 -40 156 -170 157 -52 0 -71 14 -68 49 3 41 18 51 75 47 45
-3 49 -5 58 -35 8 -31 12 -33 52 -33 l43 0 0 45 c0 52 -21 99 -49 115 -24 12
-187 12 -219 0z"/>
<path d="M4710 945 c0 -31 5 -47 15 -51 12 -5 15 -32 15 -159 0 -137 -2 -153
-18 -157 -14 -4 -16 -14 -14 -57 l4 -51 161 2 162 3 0 70 0 70 -37 3 c-29 3
-38 -1 -43 -17 -5 -18 -15 -21 -61 -21 l-54 0 0 50 0 50 49 0 c54 0 61 8 61
64 0 44 -13 53 -65 49 l-44 -4 1 50 0 51 49 0 c39 0 51 -4 59 -21 9 -16 19
-19 48 -17 l37 3 0 65 0 65 -162 3 -163 2 0 -45z"/>
</g>
</svg>
